<svg width="407" height="468" viewBox="0 0 407 468" fill="none" xmlns="http://www.w3.org/2000/svg">
<path d="M319.487 246.133C327.705 229.979 329.31 216.68 324.215 199.187C317.327 175.539 297.83 167.12 284.26 148.806C278.405 140.471 274.407 131.05 270.892 121.611C264.11 103.389 253.015 86.4537 235.281 77.6662C209.621 64.9522 177.425 72.7154 159.422 94.5682C157.847 96.4812 155.15 101.152 152.93 101.119C152.493 100.816 151.923 100.418 151.889 99.8617C151.71 96.9777 157.177 91.2609 158.625 89.5934C168.761 77.9217 183.291 71.3804 198.282 68.7007C213.867 66.0069 231.924 69.6309 244.963 78.8427C258.317 88.2769 266.782 100.949 272.865 115.939C277.185 126.59 280.302 135.952 286.907 145.669C291.987 153.139 296.577 157.349 303.325 163.208C317.057 175.134 326.708 188.234 329.978 206.462C332.258 219.175 330.83 230.449 325.413 242.222C324.15 244.962 322.625 247.381 321.325 250.007C329.158 275.542 343.483 309.962 329.783 335.61C326.085 342.532 319.452 347.892 311.957 350.145C310.922 350.457 309.865 350.687 308.792 350.83C326.96 368.607 328.64 400.9 310.947 419.707C301.985 429.237 288.71 432.215 276.137 432.315C258.337 432.715 242.24 425.847 226.066 419.52C225.43 419.272 215.332 423.325 213.824 423.875C189.606 432.69 163.383 436.992 137.827 432.027C133.23 431.135 129.336 429.655 124.85 428.557C121.906 428.422 118.221 429.435 115.369 429.65C104.847 430.445 89.7515 432.907 80.8127 426.335C76.7387 423.34 78.207 415.34 81.7277 412.61C82.529 411.987 84.0595 411.137 84.3275 410.397C83.78 409.875 82.5945 409.497 81.864 409.22C66.6777 403.412 55.614 388.635 55.3035 372.135C55.2155 362.652 58.8715 353.517 65.4775 346.712C76.5167 335.445 93.675 333.005 108.475 336.852C108.235 335.577 107.764 332.487 107.157 331.455C102.637 331.177 98.4837 331.46 95.311 327.707C93.0145 324.99 90.9297 319.347 89.6187 315.947C89.1452 314.717 88.4782 310.52 88.0855 309.01C87.5402 306.91 86.7905 303.922 86.98 301.82C87.346 297.76 89.1277 295.375 92.2075 292.885C92.315 292.797 93.0572 292.13 93.0587 292.14C92.4602 287.572 87.4282 277.425 87.4525 273.307C86.9937 270.66 85.797 266.705 84.3932 264.46C83.7937 263.632 83.0392 262.612 82.6262 261.672C80.4947 256.827 76.6147 248.976 86.2045 251.695C89.897 246.723 95.141 248.754 100.318 250.315C113.042 254.082 124.946 260.207 135.408 268.372C135.99 268.825 136.418 269.18 136.942 269.705C138.342 265.82 139.365 262.022 140.679 258.147C144.118 248.008 147.525 239.105 152.808 229.812C149.947 222.317 152.216 210.675 155.468 203.402C156.499 201.095 157.875 198.559 160.31 197.461L160.98 197.461C162.309 199.18 159.526 204.239 158.648 206.259C155.79 212.835 155.009 218.739 155.252 225.845C160.369 218.132 166.517 210.905 175.049 207.027C175.874 206.652 177.273 206.021 177.886 205.385C177.094 204.328 175.759 203.677 174.76 202.77C170.86 199.231 167.142 195.281 165.149 190.343C164.695 192.225 164.357 194.277 163.044 195.72L162.59 195.697C161.082 193.596 162.161 181.093 160.556 179.987C137.523 164.117 133.897 131.572 146.429 107.951C147.33 106.251 148.297 104.383 150.411 104.344C152.624 105.473 149.771 109.35 148.954 110.981C147.785 113.355 146.819 115.822 146.065 118.358C141.628 133.413 142.134 149.441 150.179 163.212C152.241 166.742 154.6 170.056 157.743 172.722C152.933 162.029 153.114 150.26 156.846 139.247C157.677 136.796 160.998 129.74 164.095 129.888C165.686 130.896 164.275 133.13 163.52 134.352C155.511 147.308 157.513 160.844 162.571 174.364C164.003 178.191 164.901 181.876 166.652 185.912C173.825 202.449 195.797 215.398 213.365 208.052C219.56 205.462 224.522 200.045 229.219 195.462C229.932 194.769 231.619 196.022 231.393 197.057C230.902 200.071 227.598 202.421 225.537 204.497C218.818 210.325 214.804 211.833 206.445 213.576C207.004 214.203 208.552 215.995 209.154 216.367C224.708 225.963 245.137 208.539 250.322 194.11C244.903 189.564 241.83 185.618 241.074 178.208C240.736 174.902 241 169.229 241.677 166.017C242.999 164.978 244.43 164.457 245.958 163.819C252.815 160.955 254.01 150.043 250.137 144.443C247.994 141.343 243.342 140.884 240.439 143.152C238.525 144.579 237.865 147.517 235.815 148.695C234.162 149.646 231.549 149.268 229.717 149.639C207.262 154.191 182.555 149.514 167.313 131.217C166 129.642 163.932 126.986 165.747 125.054C166.68 124.69 167.822 124.811 168.376 125.699C173.018 133.137 178.783 137.258 186.39 141.204C198.493 147.481 211.866 148.85 225.236 146.74C227.417 146.407 231.713 145.778 233.834 145.083C247.438 126.897 263.355 148.531 252.902 162.937C249.156 168.1 243.977 165.17 244.619 174.388C244.585 179.397 245.504 183.939 248.923 187.788C254.32 193.861 261.592 192.697 268.62 193.802C296.58 198.197 309.395 223.002 319.487 246.133ZM150.242 294.535C151.571 298.35 153.752 305.037 155.524 308.42C160.182 318.742 163.495 330.527 167.142 341.322C168.635 345.742 171.912 355.4 172.804 359.745C181.949 357.387 191.073 354.955 200.177 352.447C205.698 350.947 211.923 349.527 217.206 347.422C221.255 345.41 225.057 342.787 229.061 340.667C232.329 338.94 235.797 337.697 239.016 335.87C234.312 334.427 231.349 334.227 228.158 330.115L227.55 326.275C223.507 324.515 222.756 321.8 222.467 317.662C216.946 314.51 219.49 312.795 219.864 308.155C219.916 307.512 218.24 305.66 218.28 303.93C218.426 297.695 228.766 296.19 233.443 296.42C230.262 287.537 227.527 278.307 224.762 269.285C224.128 267.215 223.344 264.925 222.985 262.807C217.296 263.65 209.748 265.817 203.968 267.03C192.093 269.517 180.373 272.155 168.65 275.292C161.673 277.16 154.607 279.335 147.538 280.667C149.001 286.1 149.065 289.895 150.242 294.535ZM85.5137 262.107C86.141 264.875 86.618 266.337 87.9267 268.9C88.521 270.062 89.3957 271.585 89.785 272.755C92.407 277.522 94.5057 285.062 96.4115 290.247C97.0755 292.052 97.6655 294.175 98.4002 295.982C98.6122 296.502 99.0952 296.73 99.643 296.857C102.586 297.532 106.525 297.605 108.351 300.402C109.827 302.665 108.275 303.87 108.793 305.98C108.864 306.267 110.887 307.747 111.432 308.445C112.51 309.827 111.955 313.26 112.099 313.582C112.995 315.595 114.463 316.487 113.538 319.602C111.374 326.885 115.795 322.962 110.498 330.237C111.183 332.717 111.974 335.397 112.561 337.88C117.201 338.52 128.725 343.615 133.733 345.48L157.644 354.457C161.454 355.892 165.196 357.07 168.94 358.697C167.49 355.447 165.549 348.45 164.357 344.775C162.775 339.91 161.169 335.055 159.537 330.207C158.377 326.807 157.156 323.45 156.147 320C155.166 316.647 154.921 313.255 154.075 309.92C152.77 305.42 150.737 299.492 149.255 294.977C148.535 292.815 147.045 290.455 146.154 288.312C145.149 285.897 144.375 283.31 143.585 280.815C140.607 279.79 136.368 277.892 133.396 276.625C124.946 273.022 116.56 269.145 108.142 265.442C103.23 263.277 98.3002 261.15 93.353 259.067C90.6205 257.915 86.532 256.352 84.0057 254.977C84.8597 257.245 85.6747 259.667 85.5137 262.107ZM202.845 213.701C196.103 213.774 187.703 211.452 181.923 207.999C161.571 214.891 151.714 238.123 145.24 256.797C143.48 261.875 141.655 266.8 140.235 271.987C141.998 273.687 143.725 274.947 145.336 276.82C150.39 271.287 161.812 266.71 168.727 263.89C169.085 260.797 169.522 249.529 172.624 248.927C174.524 249.684 173.86 252.947 173.639 254.682C173.302 257.322 173.153 260.402 172.527 262.957C182.059 258.06 197.757 255.985 208.515 255.275C211.715 255.062 215.521 254.722 217.073 258.022C217.351 258.61 217.594 259.215 217.8 259.83C221.585 259.08 225.02 257.512 226.462 262.267C227.809 266.707 229.153 271.205 230.506 275.65C231.38 278.822 233.874 285.72 234.331 288.692C240.935 287.32 246.116 289.287 251.732 292.97C253.962 294.427 256.115 295.997 258.18 297.677L258.46 297.595C262.925 296.297 272.827 296.73 277.822 296.977C277.95 296.89 278.077 296.802 278.207 296.715C278.385 293.187 274.917 278.795 273.91 274.8C273.092 271.605 270.135 262.622 271.402 260.267C272.17 259.735 271.815 259.862 272.847 259.915C273.845 260.43 274.38 261.512 274.635 262.59C277.315 273.872 280.685 285.21 281.922 296.752C281.945 296.947 281.94 297.262 281.942 297.457C285.23 298.095 296.515 298.612 296.987 301.972C296.655 302.94 296.902 302.617 296.117 303.255C294.06 303.802 287.832 301.805 285.31 301.457C277.515 300.382 269.005 299.362 261.142 300.162C264.097 303.19 266.052 305.86 266.84 310.12C268.257 317.775 267.402 324.867 262.895 331.282C278.062 331.195 294.74 337.062 305.785 347.597C314.417 345.962 319.95 343.732 324.945 335.95C336.473 317.69 330.58 293.332 324.927 273.975C317.5 248.546 307.795 220.274 285.245 204.3C273.637 196.076 265.64 198.482 253.607 195.351C249.253 206.566 242.208 214.774 231.089 219.712C221.754 223.858 207.382 225.066 202.845 213.701ZM230.487 417.257C233.863 418.952 237.609 420.067 241.147 421.437C265.465 430.85 300.985 435.58 314.865 407.267C320.435 395.907 320.84 382.515 316.772 370.592C312.432 357.73 301.667 347.142 289.715 341.185C281.46 337.072 272.055 334.942 262.912 334.545C261.2 334.47 258.85 334.227 257.242 334.352C243.103 335.602 226.92 346.475 214.716 353.235C210.735 355.437 206.698 357.652 202.646 359.872C185.033 369.525 165.949 380.802 146.28 385.42C142.422 386.2 137.483 387.115 133.629 386.69C123.76 385.602 111.743 382.25 104.361 391.372C97.0765 400.375 103.517 410.847 111.229 416.73C128.272 429.732 151.477 431.6 172.134 429.965C190.113 428.167 212.754 421.822 228.952 413.735C243.688 407.407 257.15 399.107 271.212 391.512C272.31 390.92 273.73 390.417 274.985 390.452C275.8 390.84 275.51 390.542 275.865 391.395C275.802 394.197 269.477 396.655 267.162 397.982C255.215 404.827 243.048 411.597 230.487 417.257ZM94.1092 295.94C87.6842 300.485 91.8352 308.095 92.8557 314.56C93.2267 316.912 96.8072 322.51 97.8205 324.905C99.6052 328.627 109.126 329.162 110.015 324.34C108.749 323.257 104.661 325.305 102.295 324.022C100.408 321.005 106.826 320.607 108.574 320.192C109.964 319.452 110.661 318.827 110.102 317.202C107.488 314.81 102.885 318.582 100.558 316.825C98.7262 312.495 106.367 314.09 108.473 312.245C108.8 311.33 108.807 311.302 108.653 310.36C106.822 307.177 99.5152 309.827 96.927 308.232C96.5507 307.497 96.6655 307.735 96.7407 306.79C98.3767 303.977 103.369 305.885 105.66 304.035C107.293 300.27 97.4112 299.917 95.3592 299.875C95.1525 299.052 94.6062 296.367 94.1092 295.94ZM101.51 427.027C105.252 426.97 115.263 425.877 117.98 426.287L118.343 426.037C118.212 425.585 117.489 425.167 116.983 424.947C110 421.927 103.934 416.187 99.9907 409.74C99.8615 409.697 99.7325 409.657 99.6032 409.617C94.3092 410.805 86.3237 411.652 83.288 416.462C82.383 417.905 82.1125 419.657 82.5402 421.307C84.0375 427.055 96.6232 427.102 101.51 427.027ZM136.66 274.215C136.559 273.28 136.534 273.372 135.634 272.652C125.679 264.675 102.605 251.852 89.9012 252.537C90.219 253.36 90.1592 253.532 91.1062 253.957C100.255 258.067 109.987 262 119.089 266.155L130.541 271.5C131.959 272.165 135.3 273.842 136.66 274.215ZM205.391 258.852C192.429 259.865 167.234 265.992 155.173 274.162C155.1 274.25 155.027 274.335 154.953 274.422L155.118 274.707C156.705 274.83 159.937 273.932 161.565 273.442C167.732 271.385 213.471 261.375 213.989 260.985C215.386 257.61 206.873 258.6 205.391 258.852ZM236.873 296.2C238.59 296.282 240.63 296.24 241.468 298.102C240.299 302.157 221.155 297.575 222.134 304.357C223.782 307.2 232.955 305.962 235.944 306.837C236.98 307.14 237.058 307.927 237.008 308.742C235.26 311.617 226.407 309.767 223.236 309.372C223.052 310.07 222.535 311.83 222.724 312.49C224.123 317.39 232.315 314.117 235.119 317.06C235.437 317.395 235.444 317.982 235.435 318.372C233.866 320.967 228.17 317.972 226.285 319.307C226.023 322.697 230.892 323.657 233.441 324.195C234.839 324.39 236.57 324.437 236.7 326.307C235.624 328.03 232.633 326.855 231.266 327.812C231.224 328.162 231.168 328.227 231.563 328.62C234.719 331.765 239.993 332.557 244.134 332.672C249.162 332.812 253.56 330.95 258.575 330.727C265.215 323.587 265.945 309.66 258.585 302.5C257.272 301.222 255.2 300.28 253.745 299.137C249.57 295.952 243.347 291.342 237.74 291.692C237.152 291.732 236.566 291.78 235.981 291.84C235.708 292.935 236.517 294.985 236.873 296.2ZM165.892 363.012C169.923 364.977 173.744 367.147 177.814 369.037C180.085 368.04 200.935 357.04 201.544 356.282L201.449 356.005C201.11 355.99 200.904 355.955 200.571 356.002C192.231 358.565 184.173 360.507 175.646 362.335C169.655 363.62 165.52 360.83 159.752 359.572C161.774 360.96 163.662 361.985 165.892 363.012ZM91.5272 338.872C73.538 339.345 58.3667 355.467 59.3575 373.252C59.891 382.825 63.9712 391.035 70.963 397.672C77.2927 403.727 82.2427 405.357 89.8275 408.61C91.856 407.93 97.318 406.88 98.1045 406.512C98.4672 405.262 97.6625 402.7 97.5567 401.247C96.7347 389.972 104.797 383.405 115.309 381.867C122.658 380.767 127.643 382.7 134.277 383.13C146.343 383.91 163.069 376.067 174.107 371.132C149.169 359.755 119.413 337.805 91.5272 338.872Z" fill="#0244CC"/>
<path d="M149.255 294.977L150.242 294.535C151.571 298.35 153.752 305.037 155.524 308.42C155.058 308.945 154.619 309.48 154.075 309.92C152.77 305.42 150.737 299.492 149.255 294.977Z" fill="#365ABE"/>
<path d="M85.5137 262.107C86.141 264.875 86.618 266.337 87.9268 268.9C88.521 270.062 89.3958 271.585 89.785 272.755C89.0668 272.995 88.1317 273.412 87.4525 273.307C86.9937 270.66 85.797 266.705 84.3932 264.46C85.0147 263.782 85.1987 262.99 85.5137 262.107Z" fill="#365ABE"/>
<path d="M207.497 159.2C210.285 159.361 209.839 161.043 210.966 162.81C212.19 164.727 215.582 163.367 216.928 165.408C217.258 167.126 215.859 168.575 214.821 170.161C215.147 171.722 215.904 174.052 214.567 175.252C213.383 175.687 212.685 175.552 211.529 175.027L210.067 174.372C204.945 178.452 204.554 176.485 204.3 171.075C202.875 170.336 201.066 169.583 201.119 167.739C201.895 165.887 203.43 165.505 205.21 164.246C205.778 161.706 205.71 160.986 207.497 159.2ZM210.133 170.875C210.685 171.129 211.4 171.562 211.943 171.448C212.151 170.773 211.916 170.208 211.742 169.498C212.024 168.556 212.352 168.038 212.136 167.196C210.276 166.603 210.26 167.291 208.887 165.321C208.684 165.029 208.696 165.081 208.361 164.865C207.982 165.572 206.458 167.907 206.41 168.294L207.852 171.625L208.204 171.754C208.825 171.441 209.478 171.061 210.133 170.875Z" fill="#0244CC"/>
<path d="M174.654 159.636C177.683 159.699 176.757 161.467 177.852 163.354C179.051 165.422 182.41 164.669 183.516 166.933C183.364 168.654 182.395 169.298 181.141 170.508C182.174 174.738 181.507 178.926 176.618 174.968C175.617 175.059 173.214 176.86 172.019 176.812C170.656 176.757 171 172.237 171.002 171.247C164.661 166.268 170.291 167.454 172.534 163.353C173.484 161.618 172.68 161.443 174.654 159.636ZM176.173 171.367L177.65 171.805L177.972 171.621C178.081 170.024 177.996 169.792 178.549 168.263C178.879 168.756 175.306 165.58 175.387 165.645C174.909 166.555 173.505 167.94 173.357 168.491L173.958 169.838C174.154 170.277 174.05 171.24 174.017 171.737L174.255 172.048C174.491 171.966 176.057 171.387 176.173 171.367Z" fill="#0244CC"/>
<path d="M208.763 189.158C212.848 190.825 209.062 194.364 206.971 195.858C202.937 198.738 199.079 199.187 194.315 198.389C194.058 198.324 193.493 198.182 193.341 197.994C190.305 194.24 197.06 194.796 198.284 194.833C202.643 194.966 205.875 191.919 208.763 189.158Z" fill="#0244CC"/>
<path d="M188.762 175.426C192.555 176.141 189.96 180.189 190.097 182.717C190.215 184.892 193.134 184.184 193.236 186.373C192.779 187.169 192.762 187.192 191.939 187.637C186.758 188.166 185.95 184.442 186.529 180.112C186.819 177.944 186.993 176.757 188.762 175.426Z" fill="#0244CC"/>
</svg>
