<svg width="378" height="478" viewBox="0 0 378 478" fill="none" xmlns="http://www.w3.org/2000/svg">
<path d="M224.405 165.766C222.317 178.021 227.89 189.432 240.795 191.394C244.52 191.96 248.217 192.149 251.917 192.76C267.367 195.537 277.47 204.339 286.483 216.876C290.165 222.065 293.363 227.582 296.035 233.358C296.815 235.072 299.942 242.649 300.547 243.503L300.902 243.507C301.565 242.672 301.87 241.689 302.392 240.677C307.535 230.683 309.25 219.787 307.948 208.767C306.003 192.273 297.305 178.956 285.145 168.095C276.44 160.317 268.86 154.278 262.302 144.258C257.517 136.95 254.85 130.384 251.8 122.236C245.864 106.375 238.892 92.5137 225.221 81.8777C213.012 72.3035 197.45 68.075 182.076 70.1545C169.193 71.7957 155.806 78.0262 146.271 86.901C144.889 88.197 143.579 89.5677 142.346 91.007C141.277 92.2667 140.323 93.5955 139.277 94.859C137.891 96.5317 135.443 101.091 133.31 97.491C133.203 95.936 136.924 91.239 138.103 89.883C150.049 76.003 167.035 67.457 185.301 66.1365C219.755 63.7977 243.485 87.1607 254.255 117.993C259.34 132.544 266.655 147.042 278.427 157.286C287.675 165.332 296.725 172.731 303.12 183.418C308.457 192.335 311.555 201.606 312.158 212.017C313.165 226.434 309.635 235.849 302.46 247.958C308.655 266.575 317.97 295.7 316.057 315.282C315.53 320.625 314.037 325.825 311.65 330.632C308.115 337.71 303.168 342.01 295.72 344.69C294.535 345.117 291.255 345.537 290.823 346.005C291.3 347.21 293.148 348.67 294.035 349.857C301.278 359.565 304.107 369.347 304.645 381.445C305.422 398.972 295.832 417.397 279.027 424.08C256.685 432.94 231.289 424.945 210.179 416.117C208.923 415.595 207.872 415.042 206.77 414.252L206.485 414.315C203.356 415.032 199.596 417.042 196.589 418.095C167.606 428.242 135.498 432.227 106.169 421.19C105.343 420.877 101.391 422.055 100.236 421.882C90.9513 422.195 69.3058 425.417 63.1075 417.772C61.7495 416.097 61.273 412.865 61.6588 410.742C62.3393 406.997 64.9318 404.975 67.8383 402.88C58.9108 400.39 47.7103 390.852 43.648 382.72C26.122 347.637 57.556 319.257 91.85 328.722C91.5438 327.735 90.9298 324.99 90.4458 324.43C88.4348 323.93 86.4018 323.987 84.3848 323.64C76.5275 322.28 73.7053 310.052 71.8595 303.587C69.7933 296.352 68.7163 288.372 77.1003 284.895C75.4608 281.13 72.3588 272.5 72.1065 268.545C72.8273 267.822 73.2225 268.125 74.2138 266.637C76.4575 272.222 80.7285 283.185 82.1553 288.922C86.5683 289.495 88.57 289.847 91.9898 292.685C92.938 295.375 92.9623 296.102 91.9038 298.707C95.5073 300.797 96.153 302.55 95.4623 306.547C96.7228 308.705 97.0768 309.54 96.952 312.062C96.7115 316.925 97.2173 318.99 93.6945 322.605C94.6438 324.965 95.1003 326.835 95.7418 329.292C99.454 331.375 103.492 332.392 107.43 333.975C119.179 338.702 130.956 343.332 142.749 347.945C145.342 348.96 148.509 349.942 150.878 351.31C149.888 346.607 147.92 341.937 146.485 337.347C144.524 329.93 141.275 322.385 139.339 315.032C137.294 306.055 135.586 297.612 132.453 288.885C130.783 284.237 127.416 278.312 126.853 273.647C125.377 272.882 122.997 271.975 121.368 271.252L110 266.167L68.1183 247.872C69.2408 251.285 69.9198 252.837 70.8505 256.497C70.0723 258.275 70.0515 258.095 68.1608 258.142C65.9698 254.722 59.5923 239.702 70.0013 244.666C73.6748 239.425 77.0548 241.216 82.2038 242.646C90.1173 244.844 98.032 248.169 105.055 252.42C110.691 255.832 115.865 259.745 121.507 263.042C121.591 263.09 121.958 262.547 121.935 262.627C126.184 249.709 130.907 237.719 136.956 225.502C134.004 218.455 136.867 200.19 143.484 194.971C143.732 194.776 144.125 194.797 144.428 194.823C144.736 195.055 145.187 195.283 145.094 195.733C144.251 199.795 142.018 203.877 140.843 208.177C139.307 213.793 139.838 216.5 139.122 221.462C141.035 219.222 142.513 216.877 144.352 214.665C149.552 208.415 154.676 205.19 161.927 201.695C156.342 197.567 152.115 193.805 149.098 187.417C148.676 189.169 147.794 192.644 146.203 193.667L145.719 193.608C144.29 191.63 145.956 186.251 145.46 183.249C144.94 180.1 144.396 178.623 143.309 175.697C133.051 169.548 125.442 157.533 122.655 146.067C119.204 131.872 121.664 116.804 128.692 104.084C129.47 102.676 130.361 101.421 132.102 101.871C133.478 103.379 132.094 105.677 131.295 107.216C121.897 125.32 122.787 149.049 136.497 164.81C137.862 166.38 139.226 168.143 140.801 169.417C139.707 166.8 138.551 164.539 137.745 161.799C135.785 155.136 135.483 147.905 136.191 141.02C136.581 137.227 138.588 129.682 142.264 127.779L142.979 127.746C143.401 128.137 143.908 129.03 143.739 129.554C142.439 133.585 140.433 137.623 139.947 141.889C138.798 151.991 141.31 161.39 145.293 170.578C148.397 178.436 149.756 183.655 155.367 190.552C161.797 198.454 171.134 204.327 181.322 205.593C189.534 206.614 196.381 204.172 202.681 199.027C203.808 198.107 208.245 194.029 209.393 193.799C210.69 194.526 211.445 195.788 210.348 197.118C205.946 202.455 198.798 206.932 192.043 208.436C190.797 208.68 189.557 208.889 188.41 209.085C199.008 226.514 227.955 207.397 232.372 192.45C221.999 187.383 218.878 174.742 220.583 164.119L220.845 163.917C222.315 162.804 223.473 162.368 225.107 161.486C232.268 157.622 232.514 142.277 223.304 140.794C221.099 140.559 220.078 140.709 218.312 141.892C216.995 142.775 215.119 147.154 214.258 147.339C211.43 147.946 204.918 149.123 202.245 149.534C197.157 150.269 192.008 150.503 186.874 150.231C172.409 149.406 157.424 143.318 147.863 132.162C146.186 130.206 141.888 125.697 143.622 123.266C144.438 122.843 144.466 122.822 145.36 122.877C145.886 123.169 149.963 128.639 150.739 129.545C151.936 130.916 153.21 132.218 154.554 133.444C170.035 147.633 192.807 149.295 212.277 143.79C214.051 140.769 216.659 138.243 220.133 137.338C222.735 136.686 225.491 137.102 227.783 138.495C237.192 144.15 235.807 161.803 224.405 165.766ZM184.71 209.429C180.607 209.037 177.324 208.971 173.415 207.627C171.649 207.019 166.334 204.378 165.314 204.49C162.187 204.835 154.832 209.814 152.415 211.853C140.939 221.532 134.951 238.314 129.585 251.885C127.811 256.37 126.434 261.417 124.631 265.842C125.925 267.05 127.065 268.122 128.458 269.227C129.51 267.902 131.402 266.752 132.859 265.837C136.632 263.422 140.603 261.33 144.731 259.585C147.106 258.582 149.729 257.7 151.999 256.68C152.398 253.892 152.812 247.097 154.69 244.875C155.225 244.241 156.428 244.471 156.994 245.327C157.338 249.143 156.039 252.23 155.923 255.777C164.024 252.32 187.06 248.114 196.218 250.18C197.531 250.475 198.952 253.297 199.604 254.58C201.392 254.017 204.123 253.19 205.873 253.997C207.463 255.557 208.665 260.085 209.266 262.335C211.158 269.41 213.77 276.44 215.576 283.517C224.149 281.52 230.461 285.29 236.821 290.602C237.837 291.452 238.949 292.565 240.007 293.322C244.478 292.445 255.693 293.212 260.595 293.62C258.765 286.34 257.957 277.105 255.417 269.51C254.865 267.015 252.355 260.447 253.643 258.447C253.785 258.225 254.157 257.98 254.42 257.905C254.895 257.765 255.357 257.837 255.747 258.127C258.012 259.805 263.52 287.242 263.93 291.65C264.022 292.645 264.027 293.65 264.03 294.65C266.69 294.885 276.762 296.307 278.617 297.775C279.095 298.605 279.132 298.637 279.122 299.565C278.15 301.25 275.205 300.27 273.64 299.89C263.925 297.535 253.23 295.97 243.215 295.962C250.462 303.935 250.53 317.22 244.328 325.747C262.355 326.562 274.507 331.272 287.957 342.902C296.002 341.482 300.84 339.69 305.835 332.647C317.34 316.43 311.145 291.205 306.438 273.635C299.758 248.708 289.847 219.91 268.527 203.937C262.045 199.091 253.695 196.478 245.755 195.601C242.437 195.235 238.798 194.971 235.757 193.619C231.927 203.689 224.236 211.813 214.391 216.189C204.461 220.608 189.82 221.53 184.815 209.685L184.71 209.429ZM83.867 419.125C88.3343 419 96.6925 418.345 100.634 418.677C92.8488 413.325 87.9168 411.86 82.7613 402.675C82.344 402.58 82.4003 402.53 82.0233 402.605C76.765 403.255 69.9295 404.575 66.394 408.89C64.3348 411.405 64.829 414.727 67.577 416.467C72.012 419.28 78.7523 419.32 83.867 419.125ZM211.925 407.75C216.573 405.902 220.71 403.7 225.156 401.477C234.904 396.607 244.323 391.177 253.997 386.175C254.527 385.9 255.2 385.982 255.755 386.125C256.515 386.93 256.415 386.595 256.527 387.53C255.415 390.372 246.481 394.1 243.624 395.737C234.041 401.23 224.335 406.327 214.197 410.732C212.84 411.32 211.826 411.672 210.404 412.075C238.294 424.322 281.222 436.282 297.267 400.452C302.315 389.182 301.85 373.807 296.987 362.652C286.725 339.12 262.777 328.915 238.614 328.857C222.632 330.16 208.127 340.345 194.336 347.675C176.448 357.185 159.087 368.077 139.865 374.72C132.531 377.585 124.561 379.785 116.611 379.212C108.633 378.637 102.571 375.82 94.5285 378.895C78.624 384.975 82.2685 400.775 93.4923 409.237C126.621 434.217 177.307 424.117 211.925 407.75ZM72.5018 400.69C75.7938 399.867 77.88 399.472 81.2848 399.107C77.3015 385.557 84.8828 376.325 98.3513 374.305C105.524 373.862 110.034 374.917 117.089 375.705C126.23 376.725 136.893 372.265 145.172 368.882C146.695 368.26 154.879 365.097 155.374 364.067C154.9 363.36 146.29 358.937 144.949 358.24C127.619 349.2 95.8068 328.002 75.6853 330.615C66.0563 331.017 57.7713 334.605 51.1795 341.752C45.3185 348.135 42.186 356.557 42.451 365.22C42.798 374.155 47.769 384.207 54.3643 390.2C59.6813 395.032 65.7933 398.247 72.5018 400.69ZM77.9265 288.18C74.6513 290.612 72.8773 293.84 74.0915 298.01C76.3078 305.622 79.8805 325.83 91.8563 319.18C92.237 318.967 93.0725 318.085 93.331 317.7L93.3573 317.242C91.529 316.01 87.1368 318.662 85.755 316.215C86.1183 313.27 90.105 313.68 92.5113 312.707C93.172 312.047 93.321 311.93 93.6915 311.08C93.5958 310.277 93.7593 310.63 93.0833 310.04C89.7128 309.067 82.2155 312.4 83.6948 307.745C85.7413 305.685 92.232 307.527 92.0145 304.122C91.6648 298.642 81.6258 303.582 79.8455 300.177C80.057 295.425 87.6548 299.307 89.1345 296.03C89.058 294.967 88.6838 294.662 87.9345 293.822C85.1875 292.98 79.6965 292.562 78.658 291.375C78.5993 290.29 78.7648 288.897 77.9265 288.18ZM145.077 354.337C149.018 356.4 156.359 359.792 159.522 362.162C165.584 359.237 171.491 356.242 177.366 352.957C178.663 352.232 182.274 350.49 183.232 349.632L183.309 349.145L182.878 349.025C177.639 350.56 171.902 351.722 166.543 353.11C162.909 354.05 158.481 355.27 154.727 355.755C152.127 356.092 142.797 351.1 141.164 351.61L141.187 352.015C142.264 352.897 143.823 353.662 145.077 354.337ZM187.914 253.107C183.387 253.42 176.113 254.265 171.835 254.99C164.666 256.202 143.068 262.48 138.205 266.965L138.148 267.36C139.931 267.64 142.35 266.562 144.038 266.412C160.051 261.955 177.101 259.3 193.404 255.922C194.122 255.775 194.724 255.5 195.27 255.017L195.38 254.617C194.092 252.625 189.95 252.985 187.914 253.107ZM220.288 329.785C214.401 328.077 209.544 327.37 208.912 320.302C204.098 317.88 204.999 317.087 203.964 312.595C203.682 311.37 200.831 309.895 200.669 308.395C199.846 306.527 201.693 302.755 201.43 302.297C198.574 297.307 199.79 293.81 206.421 292.075C208.991 291.387 211.634 291.01 214.293 290.952C210.348 280.222 207.547 268.755 204.151 257.825C204.141 257.79 203.702 257.592 203.605 257.587C186.021 260.547 168.216 264.55 150.788 268.315C144.002 269.78 137.345 271.945 130.525 273.285C132.223 278.605 131.671 284.017 133.683 289.155C135.207 293.047 136.306 297.905 137.97 301.63C141.009 308.432 143.331 314.77 145.438 321.915C147.101 327.557 149.49 333.187 151.004 338.912C152.092 342.85 154.177 348.472 154.965 352.275C156.947 351.802 158.933 351.345 160.921 350.902C172.98 348.112 186.229 344.502 198.32 341.35C200.477 340.785 204.977 337.147 207.296 336.345C211.479 334.07 216.302 332.082 220.288 329.785ZM120.773 267.385C120.781 266.502 120.384 266.13 119.783 265.522C113.254 258.937 84.3528 245.147 75.1268 244.982C74.887 244.977 74.651 244.992 74.4128 245.015C74.1978 245.938 74.099 245.701 74.4658 246.311C90.0563 253.335 105.455 259.55 120.773 267.385ZM215.057 318.29C216.111 318.517 217.147 318.672 218.074 319.225C218.42 320.172 218.312 319.88 218.132 320.997C216.727 322.637 214.287 320.86 212.754 321.627C212.423 323.29 214.513 324.235 215.811 324.907C221.571 327.892 229.201 327.025 235.341 325.737C236.914 325.407 238.919 325.292 240.279 324.312C246.462 318.537 246.483 305.85 241.469 299.297C239.964 297.33 237.88 296.332 235.978 294.847C230.052 289.67 225.546 285.89 217.291 286.367C216.792 287.205 216.969 287.662 217.232 288.695C217.386 289.29 217.546 289.882 217.712 290.472C219.519 290.507 222.365 290.52 222.666 292.927C220.451 295.847 207.088 292.787 203.842 297.09C203.117 298.21 204.219 299.547 205.223 299.94C208.834 301.36 212.942 300.98 216.741 301.087C218.007 301.122 218.218 303.027 218.024 303.977C215.219 306.777 200.633 300.455 204.717 307.8C206.061 310.217 216.303 310.317 217.44 312.532C216.214 315.435 209.649 312.377 207.755 313.877C207.453 316.85 212.908 317.98 215.057 318.29Z" fill="#0243CC"/>
<path d="M237.383 329.378C239.252 329.133 242.186 329.173 244.07 329.375C242.429 329.588 239.009 329.608 237.383 329.378Z" fill="#0243CC"/>
<path d="M169.378 173.038C172.025 174.935 170.767 177.233 170.735 179.974C170.703 182.716 174.366 181.632 174.292 184.145C173.716 184.991 173.311 185.113 172.413 185.552C166.435 185.579 166.437 178.668 167.607 174.417C167.824 173.628 168.684 173.32 169.378 173.038Z" fill="#0243CC"/>
<path d="M186.844 188.669C189.247 188.885 189.542 190.516 187.754 192.087C184.491 194.956 181.374 195.115 177.257 194.961C176.104 194.698 175.421 194.429 175.146 193.22C175.996 191.314 181.133 191.745 182.697 191.126C183.58 190.777 185.959 189.228 186.844 188.669Z" fill="#0243CC"/>
<path d="M157.07 161.711C158.208 161.95 158.745 162.057 159.326 163.17C160.526 165.468 161.321 168.468 160.779 171.044C160.621 171.798 159.71 172.218 159.084 172.569C156.061 171.657 155.294 166.673 155.366 163.945C155.395 162.848 156.273 162.288 157.07 161.711Z" fill="#0243CC"/>
<path d="M184.698 162.213L184.813 162.218C188.71 162.333 188.884 167.133 188.5 170.147C188.376 171.123 187.716 171.355 186.951 171.808C186.308 171.746 185.254 171.519 184.904 170.94C183.313 168.311 182.035 164.439 184.698 162.213Z" fill="#0243CC"/>
<path d="M72.1913 261.532C72.496 262.617 73.6378 265.635 74.2138 266.637C73.2225 268.125 72.8272 267.822 72.1065 268.545C71.692 266.887 71.3812 265.675 70.8092 264.06C71.2137 262.567 71.141 262.675 72.1913 261.532Z" fill="#4267C7"/>
<path d="M68.1608 258.143C70.0515 258.095 70.0723 258.275 70.8505 256.498C71.1275 258.218 71.5768 259.903 72.1913 261.533C71.141 262.675 71.2137 262.568 70.8092 264.06C70.2227 262.008 69.184 260.008 68.1608 258.143Z" fill="#4F71CA"/>
</svg>
