<svg width="389" height="506" viewBox="0 0 389 506" fill="none" xmlns="http://www.w3.org/2000/svg">
<path d="M188.625 92.6041C199.398 92.4116 210.025 95.1196 219.392 100.445C231.615 107.284 241.302 118.951 247.27 131.504C253.318 144.227 257.11 158.203 265.595 169.686C270.985 176.981 278.31 182.586 285.23 188.335C294.858 196.452 303.905 208.865 307.018 221.224C311.44 238.786 308.995 252.97 300.293 268.385C301.615 272.838 304.195 277.428 305.648 282.058C312.585 304.16 323.628 331.418 311.99 353.725C307.613 362.118 302.473 363.888 294.08 366.27C295.293 367.2 297.263 369.37 298.3 370.553C304.718 377.753 308.978 386.615 310.593 396.123C312.825 408.813 310.828 421.725 303.355 432.21C286.76 455.485 252.75 451.955 229.281 442.973C225.005 441.335 219.113 439.563 215.394 436.953C212.914 437.833 210.214 439.198 207.733 440.193C179.951 451.348 147.809 457.005 118.673 447.805C113.884 445.663 109.159 447.875 104.279 448.28C97.813 448.818 90.8785 449.303 84.4183 448.87C77.3325 448.395 68.2473 446.298 69.7195 437.198C70.3315 433.415 73.3573 431.453 76.2193 429.478L75.9008 429.385C65.432 426.328 56.248 417.788 51.1308 408.458C38.4945 385.42 53.3365 358.39 79.2575 356.035C83.66 355.635 90.4143 355.775 94.5388 357.058C84.7373 339.388 75.6608 321.038 66.0545 303.24C63.102 297.77 63.7645 295.585 70.4388 296.618C71.658 295.028 72.3588 294.308 74.072 293.295C82.2958 292.875 93.1505 295.78 100.804 298.75C103.577 299.825 110.641 304.698 112.87 304.308C113.599 301.993 113.697 294.438 114.437 291.228C117.477 278.023 121.807 268.923 128.76 257.575C125.107 248.429 126.852 237.167 131.497 228.693C132.674 226.544 136.231 220.92 138.4 219.699C139.289 219.629 138.896 219.516 139.616 220.06C140.653 222.944 136.201 227.564 134.788 230.304C133.541 232.74 132.566 235.307 131.882 237.957C130.27 244.043 130.458 248.26 131.217 254.335C135.221 246.864 142.1 238.64 149.94 235.157C151.065 233.614 151.788 232.096 152.443 230.318C151.303 225.441 147.376 222.711 151.279 217.817C147.721 214.889 145.627 207.219 144.652 206.802C143.708 207.864 143.674 217.944 140.512 217.195C140.322 216.612 140.578 215.436 140.692 214.764C141.477 210.135 140.742 205.538 141.418 200.891C136.021 197.709 130.437 189.828 127.539 184.368C127.131 183.724 125.777 180.553 125.503 179.814C119.7 164.494 120.459 147.46 127.603 132.716C128.382 131.077 129.503 128.873 131.268 128.245C132.26 128.372 131.839 128.18 132.586 128.818C133.145 131.007 129.811 136.91 128.96 139.394C122.034 159.607 124.945 178.897 140.198 195.112C139.223 192.624 138.325 190.972 137.487 188.2C134.384 178.012 134.433 166.469 139.329 156.839C140.271 154.985 141.66 152.758 143.904 154.191C144.354 155.715 141.658 160.124 141.137 161.843C137.799 172.854 139.589 182.821 143.527 193.382C146.261 200.713 148.61 208.358 153.276 214.91C155.007 217.342 157.479 218.638 159.68 220.558C161.629 222.33 163.148 224.849 164.599 227.047C165.141 226.757 165.694 226.487 166.256 226.237C170.699 224.303 179.419 222.926 183.911 224.981C186.788 226.297 187.54 227.224 188.719 229.972C190.793 228.994 193.026 228.292 195.146 227.235C198.432 225.597 201.088 223.204 203.959 220.971C205.323 219.911 205.745 219.039 206.987 217.956C207.472 217.532 208 217.466 208.61 217.512C209.367 217.884 209.483 217.884 209.862 218.587C209.981 220.561 207.743 222.315 206.446 223.619C201.555 228.54 195.476 231.585 188.896 233.496C194.914 239.792 201.577 240.357 209.458 236.924C218.854 232.799 226.245 225.136 230.027 215.597C226.872 213.873 224.107 211.068 222.193 207.983C218.662 202.292 218.531 195.216 218.798 188.737C218.877 186.832 222.779 185.806 224.065 184.732C230.275 179.547 228.84 163.524 218.19 165.819C215.091 166.489 214.542 170.286 212.53 172.042C211.639 172.82 208.077 172.597 206.877 172.909C204.724 173.432 202.564 173.819 200.419 174.131C192.235 175.374 183.889 175.036 175.833 173.133C162.839 170.072 151.049 162.433 143.786 151.121C142.934 149.795 144.218 148.525 145.362 147.971C147.464 148.333 150.448 153.908 152.27 155.675C154.648 157.98 156.635 159.839 159.392 161.726C170.779 169.444 184.601 172.717 198.24 170.923C202.668 170.383 205.967 169.383 210.217 168.595C211.599 166.502 212.906 164.762 215.114 163.436C217.536 161.979 220.441 161.552 223.18 162.252C231.948 164.461 233.161 177.917 228.968 184.425C227.147 187.252 225.469 188.217 222.669 189.815C222.045 194.954 222.082 199.412 224.452 204.08C229.954 214.917 237.442 214.414 248.044 215.232C249.769 215.365 254.118 216.656 255.908 217.263C274.005 223.401 284.818 238.283 293.555 254.47C295.178 257.478 296.893 261.468 298.428 264.64C301.408 258.573 303.765 252.118 304.793 245.334C307.703 227.143 300.278 208.169 287.14 195.504C277.155 185.88 267.02 179.939 259.548 167.639C250.15 152.171 247.034 135.793 236.234 120.859C214.219 90.4196 172.589 88.5573 145.834 113.803C142.734 116.714 138.713 122.835 136.034 124.807C134.768 125.13 133.908 124.757 133.497 123.49C133.782 121.62 137.959 116.403 139.394 114.831C149.222 104.065 162.096 96.7248 176.413 93.8791C180.502 93.0663 184.519 92.8511 188.625 92.6041ZM170.727 272.37C173.58 278.168 171.862 284.125 169.857 289.975C169.653 290.568 169.426 291.15 169.179 291.725C175.18 289.925 181.177 288.55 187.417 287.873C191.985 287.375 191.655 288.468 193.886 291.545C195.493 290.928 197.402 290.01 199.1 290.38C200.312 291.205 201.563 293.543 202.104 294.893C204.984 302.07 209.123 309.373 211.794 316.578C220.212 314.355 231.643 318.545 238.324 323.73C244.554 320.498 255.138 320.865 262.093 320.808C261.943 320.235 261.195 317.24 261.228 316.91C261.72 311.685 251.543 283.555 252.168 280.753C252.735 280.078 252.758 280.01 253.535 279.655C254.218 279.688 254.503 279.733 255 280.235C256.653 281.898 264.775 312.495 264.918 316.22C265.13 317.733 265.398 319.378 265.523 320.888C268.13 320.88 276.468 321.02 278.755 322.653C279.125 322.918 279.195 323.558 279.238 323.995C278.88 325.003 279.128 324.665 278.325 325.305C276.853 325.705 274.95 325.14 273.44 324.988C263.325 323.97 252.055 323.75 242.028 325.375C245.118 328.455 247.314 331.023 248.421 335.418C250.045 341.863 250.193 350.495 245.52 355.76C254.608 355.745 263.555 355.935 272.5 357.708C278.095 358.818 287.418 362.58 292.325 362.458C297.083 362.34 301.375 360.433 304.725 357.045C311.51 350.183 313.31 340.075 313.175 330.808C312.848 308.255 298.77 270.643 287.173 251.005C283.323 244.488 278.655 237.934 273.21 232.647C265.005 224.682 255.058 219.82 243.666 218.545C240.593 218.201 236.484 218.282 233.716 216.97L233.613 217.142C232.074 219.769 231.106 222.702 229.344 225.277C221.504 236.734 204.664 246.939 190.861 240.383C188.749 239.38 186.918 235.68 184.916 235.402L184.541 235.704C184.618 236.537 185.618 239.405 185.58 239.587C184.946 242.717 185.074 242.627 186.685 245.362C186.78 245.522 186.708 249.737 186.698 250.365C186.651 253.188 188.226 256.295 186.216 258.68C184.698 260.478 182.702 260.813 180.888 262.168C179.545 263.205 178.51 265.43 177.385 266.47C175.025 268.65 172.931 269.925 170.727 272.37ZM137.907 334.423C142.999 341.368 145.824 348.515 149.773 356.14L157.072 370.473C159.217 374.703 161.709 379.318 163.151 383.798C168.128 382.83 173.012 380.785 177.807 379.645C192.158 376.228 202.644 367.005 216.129 361.373C212.002 359.605 210.76 358.433 209.454 354.053C207.848 353.055 205.394 351.418 205.389 349.565C205.38 346.025 202.565 346.023 200.831 343.615C200.226 342.775 199.978 340.393 200.379 339.453C201.466 336.905 198.57 337.093 198.02 335.015C196.154 327.66 206.882 325.805 211.647 324.688C210.198 322.108 206.828 314.473 205.512 311.428C203.839 307.56 198.636 297.335 197.785 293.945C189.898 296.193 182.95 298.06 174.959 300.63C164.281 304.148 153.673 307.875 143.143 311.81C140.864 312.638 132.624 315.283 131.108 316.508C131.129 317.938 132.758 324.26 133.232 325.723C134.781 328.998 135.992 331.338 137.907 334.423ZM102.231 401.828C112.579 399.123 116.73 401.523 125.918 401.873C134.22 402.19 150.972 395.978 158.793 392.223C156.279 390.91 153.792 389.545 151.334 388.13C149.522 387.068 145.178 384.37 143.329 383.69C138.841 382.043 133.458 380.718 128.812 379.393L102.275 371.673C100.274 369.043 98.6048 364.415 96.6913 361.148C91.1245 360.068 88.3355 359.505 82.536 359.378C50.7433 361.033 39.9198 396.595 62.747 417.03C67.5738 421.35 75.272 426.055 81.6545 427.158C82.0328 427.223 88.2243 425.43 89.5003 425.198C86.9225 413.093 90.8978 406.383 102.231 401.828ZM241.158 357.983C237.345 359.418 233.672 360.815 229.669 361.638C227.074 362.17 222.426 361.59 220.191 362.73C214.886 365.435 209.47 368.55 204.273 371.485L187.258 381.008C171.608 389.795 154.608 399.25 137.076 403.863C133.654 404.64 129.337 405.29 125.871 405.208C116.871 404.965 105.433 401.45 97.831 408.225C83.491 421.078 100.439 436.823 113.073 441.92C142.444 453.773 176.419 448.723 205.085 437.268C210.778 434.993 216.055 432.553 221.615 430.025C229.592 425.933 237.481 421.67 245.278 417.243C249.141 415.065 253.035 412.945 256.96 410.88C258.255 410.185 261.688 407.855 262.883 408.218C263.575 408.868 263.65 408.913 264.108 409.728C264.085 410.33 263.945 411.023 263.36 411.36C252.163 417.828 240.847 424.21 229.352 430.153C227.103 431.315 221.867 433.4 220.186 434.67L220.19 435.138C221.664 436.33 225.39 437.555 227.356 438.343C249.29 447.125 281.415 452.645 298.653 431.993C305.943 423.26 308.61 411.08 307.31 399.875C305.71 386.75 299.01 374.783 288.655 366.56C284.39 363.215 263.485 359.565 257.403 359.43C253.493 359.343 248.655 359.223 244.632 359.183C243.226 359.168 241.618 358.028 241.158 357.983ZM216.451 351.48C217.459 351.51 217.789 351.44 218.64 351.95C219.161 352.64 219.169 352.665 219.232 353.51C218.033 355.418 215.237 354.055 213.617 355.013C213.671 355.55 213.796 355.953 214.328 356.315C217.943 358.768 223.674 358.74 227.706 358.363C232.523 357.91 237.874 355.028 242.235 354.355C245.631 349.435 246.513 344.388 245.466 338.625C243.926 330.15 240.671 328.853 234.016 325.238C225.993 320.883 222.771 319.083 213.436 319.51C213.529 320.87 213.771 322.068 214.694 323.12C216.5 324.178 218.82 322.758 220.147 324.695C220.272 325.503 220.287 325.46 219.965 326.205C218.554 327.68 201.728 328.43 201.33 333.52C203.257 337.588 214.881 332.338 217.263 335.528C217.352 336.375 217.411 335.973 217.034 336.773C214.001 339.468 204.069 336.755 203.49 340.47C205.418 346.605 214.709 341.493 217.008 344.835C217.109 345.623 217.145 345.675 216.787 346.343C214.953 347.773 209.302 346.03 208.52 348.288C209.588 351.298 213.875 351.148 216.451 351.48ZM164.856 272.563C169.308 269.658 174.507 263.525 178.16 259.745C179.84 258.008 185.464 257.143 183.528 254.088C181.325 252.668 176.179 256.06 177.494 251.715L177.735 251.565C179.873 250.24 183.122 250.115 183.926 247.413C183.754 242.256 176.09 248.892 174.999 244.534C175.966 241.826 182.74 242.876 182.002 238.925C179.178 235.355 173.82 239.518 171.694 238.247C171.084 237.407 171.191 237.777 171.102 236.793C172.514 233.71 182.165 232.888 185.586 231.322C184.955 230.295 184.593 229.668 183.806 228.75C172.533 223.933 162.462 233.408 160.319 232.642C158.818 230.207 161.66 229.51 160.45 227.573C159.146 225.486 156.161 220.985 153.686 220.509C153.294 220.903 152.997 221.038 153.056 221.589C153.218 223.872 156.152 228.348 155.774 230.468C154.856 235.623 151.875 239.695 150.319 244.948C148.514 251.04 149.701 256.715 148.727 262.375C150.884 266.84 154.136 269.493 158.816 271.125C160.773 271.815 162.797 272.298 164.856 272.563ZM116.625 310.435L116.582 309.853C115.422 308.883 114.193 308.553 113.118 307.78C108.451 304.43 104.058 303.293 98.63 301.663C91.01 299.375 82.5333 296.42 74.4278 297.08L74.4103 297.723C75.5288 298.738 78.5825 299.028 80.113 299.443C90.8293 302.338 101.434 305.638 111.951 309.188C113.696 309.775 114.794 310.173 116.625 310.435ZM92.4383 445.598C97.8088 445.403 104.837 444.615 109.921 444.803C102.15 440.133 97.2323 437.895 91.753 429.99L91.031 428.95L90.6083 428.888C84.8375 429.428 73.17 431.693 73.526 439.148C73.8428 445.783 87.8148 445.918 92.4383 445.598ZM132.194 326.758C130.078 323.735 127.547 320.468 126.656 316.868C117.85 315.015 106.968 311.27 98.28 308.54C88.477 305.44 78.5788 302.653 68.5998 300.178L94.111 347.95C97.0553 353.528 101.475 363.635 104.827 368.59C111.671 370.943 118.898 372.6 125.843 374.65C135.687 377.555 145.494 380.603 155.553 382.7C156.852 382.97 158.368 383.343 159.625 383.74C156.858 378.823 154.177 372.993 151.552 367.885C149.029 362.995 146.556 358.08 144.132 353.14C142.04 348.975 138.05 341.388 137.041 337.033C136.31 334.03 133.75 329.48 132.194 326.758ZM164.767 293.093C166.308 288.87 167.377 285.825 168.475 281.453C168.666 280.335 169.561 275.123 167.692 275.433C160.5 276.618 152.149 273.045 147.374 267.69C146.368 266.563 145.964 265.158 145.448 263.618C143.143 264.073 133.655 279.36 131.955 282.223C129.795 285.925 127.584 289.598 125.325 293.238C124.43 294.7 123.973 296.493 122.351 296.915C121.497 296.765 121.467 296.763 120.874 296.168C120.52 295.233 120.701 294.183 121.198 293.348C126.291 284.78 136.903 263.498 145.552 259.21C145.355 254.478 145.556 251.035 146.355 246.324C146.646 244.607 148.339 241.209 148.07 240.27L147.795 240.152C145.275 242.47 142.384 245.05 140.23 247.732C130.014 260.455 122.59 274.618 118.7 290.525C117.07 297.19 116.617 299.58 116.771 306.54C119.211 307.85 125.925 311.27 127.754 312.688C137.069 304.308 152.892 296.77 164.767 293.093ZM188.89 291.02L188.574 291.1C184.311 292.17 179.777 292.325 175.41 293.453C163.759 296.463 151.937 301.028 141.486 307.025C140.782 307.43 138.847 308.66 138.618 309.375C139.12 309.53 139.083 309.535 139.594 309.425C142.965 308.018 146.512 306.865 149.958 305.608C159.261 302.215 168.639 299.033 178.086 296.063C179.814 295.513 189.326 292.95 189.879 292.373C190.062 291.573 190.122 291.933 189.745 291.253C189.35 291.105 189.278 291.02 188.89 291.02Z" fill="#0243CC"/>
<path d="M133.232 325.722C134.78 328.997 135.992 331.337 137.907 334.422C137.99 336.07 137.487 335.865 137.041 337.032C136.31 334.03 133.75 329.48 132.194 326.757C132.666 326.472 132.882 326.145 133.232 325.722Z" fill="#4763B8"/>
<path d="M166.834 197.897C170.942 197.913 168.938 202.649 169.071 205.701L169.089 206.081C170.459 206.678 171.571 206.879 172.069 208.352C171.924 209.136 171.724 209.223 171.114 209.811C168.383 210.318 167.417 209.898 165.837 207.769C165.616 204.416 164.87 200.641 166.834 197.897Z" fill="#0243CC"/>
<path d="M182.839 186.896C186.265 186.964 186.858 190.724 186.944 193.528C186.987 194.926 186.587 195.582 185.579 196.53C184.868 196.542 183.846 196.658 183.39 196.04C181.501 193.478 180.257 189.28 182.839 186.896Z" fill="#0243CC"/>
<path d="M155.857 186.645C158.843 187.344 159.664 193.411 158.82 195.913C158.592 196.588 157.676 196.818 157.092 197.058C154.415 196.846 153.621 190.517 154.067 188.424C154.278 187.433 155.064 187.089 155.857 186.645Z" fill="#0243CC"/>
<path d="M180.148 215.366C181.153 215.011 181.961 215.725 182.494 216.481C182.55 219.134 177.041 219.39 175.055 219.653C173.184 219.834 171.914 218.686 172.937 216.935C174.676 215.674 177.928 215.608 180.148 215.366Z" fill="#0243CC"/>
</svg>
