<svg width="415" height="481" viewBox="0 0 415 481" fill="none" xmlns="http://www.w3.org/2000/svg">
<path d="M228.4 66.3488C249.757 65.2673 263.988 70.6111 279.14 85.5006C296.935 102.987 298.403 126.113 311.45 145.987C316.865 154.056 324.515 160.224 331.625 166.655C356.288 188.964 362.76 220.946 345.293 249.7C346.308 254.095 349.205 260.905 350.53 265.593C353.943 277.343 356.668 289.098 358.248 301.26C359.978 314.563 358.918 330.783 349.605 341.293C344.96 346.535 337.35 348.13 330.613 348.27C336.6 355.198 340.053 359.405 342.958 368.378C344.188 372.178 345.395 375.798 345.843 379.898C347.27 392.31 344.858 404.725 337.198 414.805C318.343 439.618 282.633 432.665 257.535 423.163C254.573 422.04 249.894 420.423 247.48 418.523C246.301 419.093 245.107 419.633 243.9 420.14C214.249 432.575 175.344 439.415 144.613 426.85C134.172 429.25 119.739 429.895 108.954 428.168C102.013 427.058 96.476 421.235 100.645 414.02C101.824 411.98 104.261 410.573 106.317 409.428C96.4043 406.758 87.9335 399.413 82.1975 391.063C76.6313 382.855 74.5595 372.77 76.4393 363.033C78.3595 353.565 83.9455 345.24 91.979 339.873C101.649 333.44 113.252 331.91 124.465 334.21C117.382 318.743 110.053 303.393 102.48 288.16C98.7895 280.638 94.9738 273.185 91.3195 265.65C89.648 262.203 89.2675 261.738 92.7513 260.048C93.0763 252.308 94.1118 246.041 100.751 240.868C105.376 237.264 112.156 235.145 118.037 235.951C123.946 236.761 127.261 240.043 130.701 244.576C130.706 244.302 130.713 244.027 130.724 243.752C130.86 240.358 132.549 222.533 134.579 220.658C136.3 219.95 137.199 220.831 138.32 222.142C142.774 227.353 147.276 232.558 151.62 237.863C155.122 242.139 159.711 246.627 162.703 251.255C165.48 246.162 168.203 241.235 171.248 236.275C173.475 232.318 178.164 227.942 179.343 223.577C180.825 218.089 180.112 211.554 182.033 205.987C183.495 201.748 185.14 195.819 189.286 193.521C190.085 186.802 189.812 183.339 186.797 176.879C185.873 176.401 184.919 175.741 184.091 175.108C172.942 166.575 166.886 153.741 165.046 140.062C164.812 126.899 165.301 119.983 171.044 107.616C171.895 105.785 173.273 103.101 175.229 102.383C177.033 102.556 177.124 104.118 176.485 105.285C168 120.781 165.629 139.486 173.519 155.802C175.858 160.639 179.99 167.164 184.676 170.891C178.484 158.994 177.182 144.201 182.808 131.713C183.361 130.483 184.566 128.727 185.876 128.315C186.918 128.417 186.454 128.248 187.32 128.851C187.929 130.521 185.817 134.368 185.155 136.274C184.643 137.765 184.241 139.29 183.951 140.839C181.258 155.13 186.336 161.624 189.986 174.701C196.504 198.049 222.964 217.873 245.362 200.452C247.012 199.168 250.648 194.682 252.703 195.054C253.403 195.584 253.363 195.56 253.733 196.368C253.873 200.611 242.479 207.241 238.987 208.664C237.219 209.384 233.588 210.061 231.578 210.43C236.398 217.929 245.245 217.928 252.938 215.318C260.553 212.734 267.24 206.983 272.07 200.641C273.435 198.849 274.76 195.834 275.748 193.765C271.203 191.036 268.188 187.547 266.033 182.313C264.968 179.724 263.18 167.51 264.933 164.799C267.73 162.141 271.093 162.453 272.773 158.347C274.95 153.021 274.723 144.426 268.508 141.818C261.873 139.034 261.035 145.773 257.043 148.547C256.638 148.829 252.895 148.438 252.248 148.83C236.118 152.661 219.711 151.775 204.98 143.58C198.168 139.425 190.453 133.402 187.252 125.929C186.644 124.508 187.864 123.341 189.191 123.015C190.869 123.63 193.308 128.99 194.898 130.653C196.739 132.578 198.041 134.09 200.231 135.782C213.304 145.879 226.424 148.447 242.728 146.95C247.341 146.527 251.583 145.224 256.063 144.629C259.203 139.155 264.915 136.201 271.078 138.981C278.458 142.309 279.075 153.651 275.828 160.042C273.995 163.651 272.1 165.343 268.25 166.695C267.71 172.572 267.825 176.898 270.175 182.24C274.505 192.075 283.848 192.764 293.203 193.619C296.645 194.131 300.065 195.004 303.323 196.206C319.16 202.05 329.538 216.356 336.978 230.828C339.475 235.685 341.423 240.614 343.608 245.646C348.435 236.344 351.465 227.388 351.463 216.75C351.46 207.476 348.655 196.53 344.185 188.424C340.175 181.225 335.038 174.717 328.965 169.148C321.573 162.236 313.425 156.257 307.8 147.577C294.838 127.155 293.595 105.932 275.968 87.7773C249.741 60.7683 207.897 65.5873 184.507 93.4748C183.013 95.2563 181.156 99.1348 178.61 99.1353C177.663 98.7011 177.943 98.9681 177.345 98.1613C177.283 96.4901 180.013 92.7606 181.092 91.4508C193.102 76.8688 209.824 68.4023 228.4 66.3488ZM228.231 210.486C219.023 210.677 215.504 208.717 207.731 204.809C204.339 206.434 199.31 208.603 196.413 210.781C183.082 220.802 173.796 240.184 165.224 254.053C167.594 256.913 176.198 267.36 177.366 270.173C181.573 268.103 185.731 266.113 190.068 264.318C191.263 263.825 192.751 263.235 193.876 262.63C194.124 259.545 194.499 256.333 195.005 253.278C195.377 251.033 195.546 245.445 198.639 245.795C199.065 246.114 199.64 246.561 199.615 247.127C199.425 251.518 198.057 257.223 197.352 261.553C205.62 258.648 221.199 254.34 229.641 255.303C231.099 256.633 231.768 257.473 233.02 259.025C234.562 258.57 237.435 257.478 239.001 258.18C241.141 259.14 250.278 283.473 252.173 287.75C259.505 285.165 264.608 285.985 271.818 289.118C274.545 290.303 279.143 293.39 281.193 295.608C286.265 293.183 298.545 293.178 303.955 294.4C303.163 292.53 302.75 289.983 302.36 287.95C301.25 282.178 299.783 276.52 298.45 270.803C297.748 268.01 295.535 262.078 296.758 259.943C297.763 259.293 299.123 259.568 299.488 260.785C302.758 271.7 305.258 282.913 307.323 294.118C307.79 296.643 324.083 295.343 323.138 300.533C322.78 300.918 322.348 301.37 321.748 301.225C308.883 298.105 298.31 296.515 284.998 297.59C290.275 302.76 292.343 307.188 292.323 314.68C292.305 321.935 290.345 327.743 284.44 331.945C285.87 337.605 322.028 344.415 328.348 344.815C337.723 345.77 346.113 341.93 350.443 333.31C360.225 313.845 352.563 286.278 346.718 266.288C340.115 243.703 328.665 215.076 307.493 202.421C302.065 199.177 295.158 197.229 288.908 196.59C286.225 196.305 281.555 195.883 279.238 194.821C275.33 204.841 267.618 212.91 257.785 217.266C250.638 220.384 242.651 221.485 235.26 218.519C231.496 217.008 228.957 214.583 228.231 210.486ZM118.094 271.423C115.923 271.778 112.361 272.245 110.417 270.885C109.994 270.588 108.667 269.398 108.339 269.28C103.898 267.695 99.384 265.978 94.9298 264.453C98.8038 271.46 102.485 279.683 106.02 286.91L132.224 341.693C134.342 343.005 139.695 344.638 142.411 345.795C153.869 350.593 165.414 355.18 177.039 359.56C181.145 361.095 186.213 362.59 190.009 364.118C185.371 350.853 178.271 336.57 172.878 323.423C171.042 318.948 169.409 313.735 167.696 309.08C166.624 306.045 165.473 303.038 164.245 300.06C161.685 295.595 159.122 292.433 157.642 287.178C147.564 284.488 137.244 279.42 127.362 276.033C121.994 274.195 123.458 277.523 118.094 271.423ZM244.23 309.73C241.444 318.92 255.568 313.003 258.003 316.76C258.008 317.783 258.173 317.363 257.63 318.1C254.71 319.535 250.255 318.058 248.276 319.45C247.66 321.415 251.673 322.623 253.13 322.975C253.56 323.078 253.995 323.163 254.433 323.23C256.3 323.37 260.49 323.215 260.383 325.883C258.585 327.533 255.253 326.135 254.31 326.945C254.06 331.33 264.468 331.783 267.863 331.778C272.428 331.77 281.295 329.798 284.91 326.748C290.203 320.845 290.17 306.85 283.603 301.71C276.265 295.965 267.898 288.923 257.963 289.84C256.02 289.973 255.34 290.013 253.508 290.575C253.785 291.39 254.59 294.18 255.25 294.365C257.088 294.883 259.703 293.655 261.288 295.05C261.575 296.025 261.548 295.538 261.325 296.57C259.36 299.175 243.229 297.595 241.893 304.36C242.157 305.365 241.978 304.995 242.693 305.758C245.784 306.988 253.538 304.943 256.978 305.298C257.703 305.373 257.858 307.093 257.8 307.643C257.238 308.578 256.545 309.103 255.405 309.085C251.703 309.028 247.89 309.623 244.23 309.73ZM266.19 335.6L265.905 335.84C262.948 338.305 255.868 341.555 252.148 343.405C249.135 344.923 246.154 346.5 243.206 348.138C223.951 358.643 204.893 370.013 184.511 378.188C174.756 382.195 164.057 385.868 153.343 384.798C146.667 384.133 141.126 382.118 134.298 384.198C121.723 388.028 118.579 401.018 127.36 410.655C138.042 422.38 154.779 427.713 170.198 429.153C198.917 432.125 224.484 424.71 250.593 413.338C262.82 407.208 274.968 401.49 286.828 394.553C289.308 393.1 295.73 388.528 298.21 390.625C298.34 391.26 298.265 391.515 297.895 392.07C296.585 394.053 273.598 406.17 270 407.978C264.04 410.973 257.935 413.695 251.978 416.673C255.313 418.318 258.913 419.588 262.458 420.918C287.888 430.47 323.703 435.215 338.16 405.838C343.78 394.42 343.36 380.515 339.173 368.733C336.17 360.393 331.27 353.82 324.893 347.845C312.615 346.858 298.03 342.513 286.403 338.445C284.315 337.715 281.553 334.9 280.35 333.078L279.75 333.068C274.885 334.158 271.13 334.843 266.19 335.6ZM147.441 279.825C148.178 280.055 149.714 280.628 150.387 280.6C150.067 279.66 147.241 277.813 146.175 277C141.393 273.35 138.632 270.345 134.855 265.818L134.457 265.793C133.073 266.58 131.941 266.938 130.376 267.245C130.935 270.053 130.805 270.378 129.914 273.098C135.638 275.26 141.785 277.53 147.441 279.825ZM159.572 283.145C160.824 281.243 163.952 278.628 165.855 277.263C168.755 275.45 171.641 273.615 174.512 271.76C171.245 267.498 137.758 226.236 136.566 225.849C135.974 233.133 133.608 241.757 133.775 249.245C133.823 251.405 135.081 254.545 135.571 256.73C136.024 258.758 136.279 260.73 136.561 262.79C145.109 271.85 149.9 275.375 159.572 283.145ZM98.4068 262.04C100.87 260.23 105.302 256.47 107.735 260.325C109.811 263.613 110.701 269.455 115.632 268.318C118.658 265.658 106.868 257.15 113.023 255.765C114.951 255.333 119.848 266.385 120.929 268.16C121.727 269.478 123.921 273.06 125.51 271.963C129.749 269.04 122.395 259.488 121.338 256.03C120.867 254.493 118.898 252.788 120.64 251.33C121.686 250.51 123.538 251.263 124.005 252.365C125.73 256.43 127.885 260.498 129.237 264.69C130.364 263.973 131.813 263.1 132.87 262.335C131.937 251.958 126.521 237.99 113.772 239.236C113.571 239.256 113.37 239.28 113.17 239.307C107.308 240.393 102.893 242.96 99.35 247.927C97.3645 250.71 96.0405 255.783 96.529 259.205C96.734 260.64 97.3773 261.143 98.4068 262.04ZM204.692 202.556C201.254 200.216 198.647 197.7 195.963 194.497C195.355 193.772 193.822 191.265 193.363 190.865C188.449 200.953 184.404 206.028 184.045 217.918C185.837 215.751 187.391 213.849 189.302 211.801C194.272 207.352 198.467 204.93 204.692 202.556ZM171.931 279.643C181.465 275.423 191.844 272.28 201.589 268.605C204.796 267.398 228.123 261.023 228.777 260.138C228.676 259.1 228.853 259.47 228.186 258.723C227.386 258.39 225.956 258.465 225.126 258.613C210.54 259.473 179.206 270.045 168.831 280.253L168.725 280.635C169.796 280.703 170.96 280.113 171.931 279.643ZM120.118 408.82C114.699 409.793 107.748 410.858 104.121 415.468C102.019 418.138 103.074 421.318 105.831 422.96C110.443 425.705 117.477 425.785 122.737 425.768L140.061 424.908C133.551 420.658 128.899 419.018 123.666 412.263C122.184 410.35 122.173 408.683 120.118 408.82ZM191.87 371.488C183.068 365.28 171.288 361.533 161.39 357.538C154.982 354.95 148.631 352.278 142.213 349.71C138.868 348.373 132.616 346.135 129.656 344.578L129.481 344.283C127.837 341.475 127.852 338.47 124.938 337.84C120.571 336.895 115.286 336.618 110.853 336.873C81.84 339.715 70.0418 372.788 89.173 393.785C90.993 395.783 92.714 397.318 94.817 398.978C97.9693 401.483 101.425 403.58 105.101 405.22C106.902 406.025 109.072 406.67 110.708 407.645C114.09 406.525 116.343 405.76 119.91 405.263C118.369 401.27 118.327 395.44 120.112 391.498C122.441 386.355 126.815 383.253 131.982 381.345C132.663 381.098 133.348 380.863 134.038 380.64C145.072 378.643 147.53 381.018 157.154 381.52C167.107 382.038 182.417 374.99 191.87 371.488ZM237.699 261.54C232.373 262.755 225.451 265.053 220.135 266.613C204.013 271.345 188.207 276.963 172.546 283.033C170.64 283.77 163.264 286.22 162.053 287.055C162.083 288.193 164.772 298.208 165.244 299.528C166.472 302.53 167.678 304.273 168.926 306.978C171.12 309.21 176.35 322.255 177.932 325.773C182.6 336.153 187.126 346.748 191.595 357.23C192.159 358.553 193.494 363.468 194.179 363.928C198.516 363.948 209.412 359.885 214.104 358.995C218.507 358.16 225.458 353.618 229.695 351.29C236.836 347.368 244.011 343.513 251.223 339.723C252.548 339.033 259.483 335.84 259.873 335.13C257.89 332.84 251.088 335.24 250.66 325.955C245.887 324.218 245.11 323.268 244.579 318.218C239.987 316.375 239.881 313.423 240.659 309.083C239.661 307.763 238.572 306.475 238.342 304.788C237.488 298.493 246.794 296.238 251.343 295.628C248.175 286.965 244.327 279.058 240.976 270.515C240.018 268.073 238.287 263.963 237.699 261.54Z" fill="#0243CC"/>
<path d="M165.244 299.528C166.472 302.53 167.678 304.273 168.926 306.978L168.571 307.708C168.125 307.055 168.394 307.168 167.842 307.048C167.765 307.888 167.966 308.283 167.696 309.08C166.624 306.045 165.473 303.038 164.245 300.06L165.244 299.528Z" fill="#395DC1"/>
<path d="M123.132 204.101C124.722 203.808 128.167 203.903 128 206.184C126.786 208.2 124.285 207.549 122.285 207.707C111.89 208.524 105.615 214.695 101.022 223.417C100.294 225.457 97.4767 224.678 97.4582 223.255C97.429 221.008 100.562 216.692 101.84 215.105C107.165 208.495 114.792 204.883 123.132 204.101Z" fill="#0243CC"/>
<path d="M211.963 174.115C215.927 174.347 214.41 179.56 214.047 182.426C215.65 182.901 216.88 183.246 217.251 184.993C217.048 185.811 216.996 185.825 216.327 186.393C210.168 187.082 210.149 181.645 210.665 177.124C210.84 175.588 210.842 175.236 211.963 174.115Z" fill="#0243CC"/>
<path d="M229.178 189.929C230.284 189.835 231.487 190.088 231.653 191.311C230.319 195.184 224.212 196.204 220.709 196.352C219.471 196.074 218.226 195.499 218.35 194.034C219.536 192.616 223.82 192.631 225.772 191.836C227.271 191.226 227.796 190.841 229.178 189.929Z" fill="#0243CC"/>
<path d="M229.118 162.712C232.12 163.606 233.197 168.915 232.089 171.513C231.719 172.381 230.907 172.545 230.07 172.754C227.474 172.469 226.739 166.855 227.16 164.767C227.379 163.684 228.249 163.198 229.118 162.712Z" fill="#0243CC"/>
<path d="M199.812 162.714C200.264 162.693 200.796 162.724 201.254 162.736C203.38 163.834 204.197 168.985 204.041 171.191C203.962 172.297 203.529 172.465 202.771 173.08C199.304 173.569 199.152 167.85 198.79 165.471C198.598 164.212 198.995 163.608 199.812 162.714Z" fill="#0243CC"/>
</svg>
